<?xml version="1.0" encoding="UTF-8" standalone="no"?>
<svg
   width="769"
   height="769"
   version="1.1"
   id="svg10"
   sodipodi:docname="Xfce.svg"
   inkscape:version="1.1 (c4e8f9ed74, 2021-05-24)"
   xmlns:inkscape="http://www.inkscape.org/namespaces/inkscape"
   xmlns:sodipodi="http://sodipodi.sourceforge.net/DTD/sodipodi-0.dtd"
   xmlns="http://www.w3.org/2000/svg"
   xmlns:svg="http://www.w3.org/2000/svg">
  <defs
     id="defs14" />
  <sodipodi:namedview
     id="namedview12"
     pagecolor="#505050"
     bordercolor="#ffffff"
     borderopacity="1"
     inkscape:pageshadow="0"
     inkscape:pageopacity="0"
     inkscape:pagecheckerboard="1"
     showgrid="false"
     inkscape:snap-global="false"
     inkscape:zoom="0.56550152"
     inkscape:cx="234.30529"
     inkscape:cy="436.78043"
     inkscape:window-width="1440"
     inkscape:window-height="856"
     inkscape:window-x="-4"
     inkscape:window-y="-4"
     inkscape:window-maximized="1"
     inkscape:current-layer="svg10" />
  <path
     d="m768.7 384.5c1.183 133.6-73.49 264.3-189.1 331.2-114.6 68.97-265.4 71.01-381.7 5.149-117.4-63.7-195.6-192.4-198-325.9-4.795-133.6 66.51-266.5 180.5-336.4 112.8-71.9 263.4-77.81 381.5-14.97 119 60.66 200.5 187.3 206.3 320.7.3558 6.746.5339 13.5.5339 20.26z"
     fill="#04a"
     id="path2" />
  <g
     id="g1000"
     transform="translate(293.06813,16.21169)"
     style="fill:#000000;fill-opacity:0.2">
    <path
       d="m -7.9788483,194.21629 c -12.5299997,33.71 19.3600003,78.33 7.466,103.5 -29.6799997,-16.3 -26.6299997,-67.63 -57.0899997,-89.43 -34.51,-29.33 -67.150002,25.02 -56.640002,57.03 12.83,37.71 11.13,72.33 -6.338,108.7 -15.96,62.21 -27.36,136.5 11.45,192.7 38.620002,48.35 108.4000017,42.46 162.500002,30.21 76.829998,-19.58 148.099998,-56.74 216.599998,-95.87 28.6,-20 68.7,-41.62 69.7,-80.88 -9.059,-55.93 -68.68,-80.17 -115.9,-96.71 -46,-16.32 -94.15,-26.97 -142.999998,-28.92 -3.984,-43.63 8.473,-107.3 -38.49,-130.9 -21.08,-4.76 -46.9300003,7.686 -50.2000003,30.64 z"
       fill="#ffffff"
       id="path4-5"
       style="fill:#000000;fill-opacity:0.2" />
    <path
       d="m 186.02115,263.81629 c -9.202,38.08 37.03148,41.2347 37.39,1.083 0.39863,-44.64408 30.10912,-93.21891 11.33,-133.9 -11.53104,-24.97962 -31.78,48.19 -37.47,68.26 -4.263,21.4 -9.467,42.74 -11.25,64.53 z"
       fill="#ffffff"
       id="path6-6"
       style="fill:#000000;fill-opacity:0.2"
       sodipodi:nodetypes="cssccc" />
    <path
       d="m 251.92115,270.81629 c -25.78,26.52 12.93566,64.76791 28.27,26.06 18.26688,-46.11042 51.45127,-87.99281 57.28,-137.1 4.01964,-33.8656 -40.79,23.03 -47.4,37.23 -14.44,23.69 -27.45,48.24 -38.16,73.85 z"
       fill="#ffffff"
       id="path8-2"
       style="fill:#000000;fill-opacity:0.2"
       sodipodi:nodetypes="cssccc" />
  </g>
  <path
     d="m272.8 213c-12.53 33.71 19.36 78.33 7.466 103.5-29.68-16.3-26.63-67.63-57.09-89.43-34.51-29.33-67.15 25.02-56.64 57.03 12.83 37.71 11.13 72.33-6.338 108.7-15.96 62.21-27.36 136.5 11.45 192.7 38.62 48.35 108.4 42.46 162.5 30.21 76.83-19.58 148.1-56.74 216.6-95.87 28.6-20 68.7-41.62 69.7-80.88-9.059-55.93-68.68-80.17-115.9-96.71-46-16.32-94.15-26.97-143-28.92-3.984-43.63 8.473-107.3-38.49-130.9-21.08-4.76-46.93 7.686-50.2 30.64z"
     fill="#fff"
     id="path4" />
  <path
     d="m 466.8,282.6 c -9.202,38.08 37.03148,41.2347 37.39,1.083 0.39863,-44.64408 30.10912,-93.21891 11.33,-133.9 -11.53104,-24.97962 -31.78,48.19 -37.47,68.26 -3.93553,22.73802 -9.53402,44.94413 -11.25,64.557 z"
     fill="#ffffff"
     id="path6"
     sodipodi:nodetypes="csscc" />
  <path
     d="m 532.7,289.6 c -21.58433,30.03391 12.93566,64.76791 28.27,26.06 18.26688,-46.11042 51.45127,-87.99281 57.28,-137.1 4.01964,-33.8656 -40.79,23.03 -47.4,37.23 -14.43624,25.14368 -23.76815,53.79811 -38.15,73.81 z"
     fill="#ffffff"
     id="path8"
     sodipodi:nodetypes="ssscs" />
  <path
     d="M 384.04164,0.52331177 A 384.5,384.5 0 0 0 -0.45836305,385.02331 a 384.5,384.5 0 0 0 0.4133,11.19 A 384.5,384.5 0 0 1 384.05494,19.713312 a 384.5,384.5 0 0 1 384.1,373.299998 384.5,384.5 0 0 0 0.4037,-8.036 384.5,384.5 0 0 0 -384.5,-384.49999823 z"
     enable-background="new"
     fill="#ffffff"
     opacity="0.2"
     stroke-width="19.22"
     id="path4-3" />
</svg>
